<mxfile host="app.diagrams.net" modified="2022-06-19T10:21:42.847Z" agent="5.0 (Macintosh; Intel Mac OS X 10_15_7) AppleWebKit/537.36 (KHTML, like Gecko) Chrome/102.0.5005.115 Safari/537.36" etag="Y03ZxDfhhLt475YYB2cm" version="20.0.1" type="github">
  <diagram name="Page-1" id="ad52d381-51e7-2e0d-a935-2d0ddd2fd229">
    <mxGraphModel dx="1849" dy="418" grid="1" gridSize="10" guides="1" tooltips="1" connect="1" arrows="1" fold="1" page="1" pageScale="1" pageWidth="1100" pageHeight="850" background="none" math="0" shadow="0">
      <root>
        <mxCell id="0" />
        <mxCell id="1" parent="0" />
        <mxCell id="04sgWp-ZvmJj8OrhsIiC-1" value="Mindmap" style="swimlane;startSize=20;horizontal=1;containerType=tree;" vertex="1" parent="1">
          <mxGeometry x="-450" y="50" width="1780" height="800" as="geometry" />
        </mxCell>
        <mxCell id="04sgWp-ZvmJj8OrhsIiC-2" value="" style="edgeStyle=entityRelationEdgeStyle;startArrow=none;endArrow=none;segment=10;curved=1;rounded=0;" edge="1" parent="04sgWp-ZvmJj8OrhsIiC-1" source="04sgWp-ZvmJj8OrhsIiC-6" target="04sgWp-ZvmJj8OrhsIiC-7">
          <mxGeometry relative="1" as="geometry" />
        </mxCell>
        <mxCell id="04sgWp-ZvmJj8OrhsIiC-4" value="" style="edgeStyle=entityRelationEdgeStyle;startArrow=none;endArrow=none;segment=10;curved=1;rounded=0;" edge="1" parent="04sgWp-ZvmJj8OrhsIiC-1" source="04sgWp-ZvmJj8OrhsIiC-6" target="04sgWp-ZvmJj8OrhsIiC-9">
          <mxGeometry relative="1" as="geometry" />
        </mxCell>
        <mxCell id="04sgWp-ZvmJj8OrhsIiC-5" value="" style="edgeStyle=entityRelationEdgeStyle;startArrow=none;endArrow=none;segment=10;curved=1;rounded=0;" edge="1" parent="04sgWp-ZvmJj8OrhsIiC-1" source="04sgWp-ZvmJj8OrhsIiC-6" target="04sgWp-ZvmJj8OrhsIiC-10">
          <mxGeometry relative="1" as="geometry" />
        </mxCell>
        <mxCell id="04sgWp-ZvmJj8OrhsIiC-6" value="Gr体制についての論点" style="ellipse;whiteSpace=wrap;html=1;align=center;treeFolding=1;treeMoving=1;newEdgeStyle={&quot;edgeStyle&quot;:&quot;entityRelationEdgeStyle&quot;,&quot;startArrow&quot;:&quot;none&quot;,&quot;endArrow&quot;:&quot;none&quot;,&quot;segment&quot;:10,&quot;curved&quot;:1};" vertex="1" parent="04sgWp-ZvmJj8OrhsIiC-1">
          <mxGeometry x="840" y="340" width="130" height="60" as="geometry" />
        </mxCell>
        <mxCell id="04sgWp-ZvmJj8OrhsIiC-7" value="うまくいっていない事" style="whiteSpace=wrap;html=1;rounded=1;arcSize=50;align=center;verticalAlign=middle;strokeWidth=1;autosize=1;spacing=4;treeFolding=1;treeMoving=1;newEdgeStyle={&quot;edgeStyle&quot;:&quot;entityRelationEdgeStyle&quot;,&quot;startArrow&quot;:&quot;none&quot;,&quot;endArrow&quot;:&quot;none&quot;,&quot;segment&quot;:10,&quot;curved&quot;:1};" vertex="1" parent="04sgWp-ZvmJj8OrhsIiC-1">
          <mxGeometry x="1030" y="290" width="160" height="30" as="geometry" />
        </mxCell>
        <mxCell id="04sgWp-ZvmJj8OrhsIiC-9" value="Topic" style="whiteSpace=wrap;html=1;rounded=1;arcSize=50;align=center;verticalAlign=middle;strokeWidth=1;autosize=1;spacing=4;treeFolding=1;treeMoving=1;newEdgeStyle={&quot;edgeStyle&quot;:&quot;entityRelationEdgeStyle&quot;,&quot;startArrow&quot;:&quot;none&quot;,&quot;endArrow&quot;:&quot;none&quot;,&quot;segment&quot;:10,&quot;curved&quot;:1};" vertex="1" parent="04sgWp-ZvmJj8OrhsIiC-1">
          <mxGeometry x="730" y="320" width="80" height="20" as="geometry" />
        </mxCell>
        <mxCell id="04sgWp-ZvmJj8OrhsIiC-10" value="Branch" style="whiteSpace=wrap;html=1;shape=partialRectangle;top=0;left=0;bottom=1;right=0;points=[[0,1],[1,1]];fillColor=none;align=center;verticalAlign=bottom;routingCenterY=0.5;snapToPoint=1;autosize=1;treeFolding=1;treeMoving=1;newEdgeStyle={&quot;edgeStyle&quot;:&quot;entityRelationEdgeStyle&quot;,&quot;startArrow&quot;:&quot;none&quot;,&quot;endArrow&quot;:&quot;none&quot;,&quot;segment&quot;:10,&quot;curved&quot;:1};" vertex="1" parent="04sgWp-ZvmJj8OrhsIiC-1">
          <mxGeometry x="730" y="360" width="72" height="26" as="geometry" />
        </mxCell>
        <mxCell id="04sgWp-ZvmJj8OrhsIiC-13" value="" style="edgeStyle=entityRelationEdgeStyle;startArrow=none;endArrow=none;segment=10;curved=1;rounded=0;" edge="1" target="04sgWp-ZvmJj8OrhsIiC-14" source="04sgWp-ZvmJj8OrhsIiC-6" parent="04sgWp-ZvmJj8OrhsIiC-1">
          <mxGeometry relative="1" as="geometry">
            <mxPoint x="520" y="410" as="sourcePoint" />
          </mxGeometry>
        </mxCell>
        <mxCell id="04sgWp-ZvmJj8OrhsIiC-14" value="Grの役割" style="whiteSpace=wrap;html=1;rounded=1;arcSize=50;align=center;verticalAlign=middle;strokeWidth=1;autosize=1;spacing=4;treeFolding=1;treeMoving=1;newEdgeStyle={&quot;edgeStyle&quot;:&quot;entityRelationEdgeStyle&quot;,&quot;startArrow&quot;:&quot;none&quot;,&quot;endArrow&quot;:&quot;none&quot;,&quot;segment&quot;:10,&quot;curved&quot;:1};" vertex="1" parent="04sgWp-ZvmJj8OrhsIiC-1">
          <mxGeometry x="1050" y="350" width="90" height="30" as="geometry" />
        </mxCell>
        <mxCell id="04sgWp-ZvmJj8OrhsIiC-15" value="" style="edgeStyle=entityRelationEdgeStyle;startArrow=none;endArrow=none;segment=10;curved=1;rounded=0;" edge="1" target="04sgWp-ZvmJj8OrhsIiC-16" source="04sgWp-ZvmJj8OrhsIiC-6" parent="04sgWp-ZvmJj8OrhsIiC-1">
          <mxGeometry relative="1" as="geometry">
            <mxPoint x="520" y="410" as="sourcePoint" />
          </mxGeometry>
        </mxCell>
        <mxCell id="04sgWp-ZvmJj8OrhsIiC-16" value="できている事" style="whiteSpace=wrap;html=1;rounded=1;arcSize=50;align=center;verticalAlign=middle;strokeWidth=1;autosize=1;spacing=4;treeFolding=1;treeMoving=1;newEdgeStyle={&quot;edgeStyle&quot;:&quot;entityRelationEdgeStyle&quot;,&quot;startArrow&quot;:&quot;none&quot;,&quot;endArrow&quot;:&quot;none&quot;,&quot;segment&quot;:10,&quot;curved&quot;:1};" vertex="1" parent="04sgWp-ZvmJj8OrhsIiC-1">
          <mxGeometry x="1030" y="230" width="110" height="30" as="geometry" />
        </mxCell>
        <mxCell id="04sgWp-ZvmJj8OrhsIiC-17" value="" style="edgeStyle=entityRelationEdgeStyle;startArrow=none;endArrow=none;segment=10;curved=1;rounded=0;" edge="1" target="04sgWp-ZvmJj8OrhsIiC-18" source="04sgWp-ZvmJj8OrhsIiC-6" parent="04sgWp-ZvmJj8OrhsIiC-1">
          <mxGeometry relative="1" as="geometry">
            <mxPoint x="520" y="410" as="sourcePoint" />
          </mxGeometry>
        </mxCell>
        <mxCell id="04sgWp-ZvmJj8OrhsIiC-18" value="専任1.0の要否" style="whiteSpace=wrap;html=1;rounded=1;arcSize=50;align=center;verticalAlign=middle;strokeWidth=1;autosize=1;spacing=4;treeFolding=1;treeMoving=1;newEdgeStyle={&quot;edgeStyle&quot;:&quot;entityRelationEdgeStyle&quot;,&quot;startArrow&quot;:&quot;none&quot;,&quot;endArrow&quot;:&quot;none&quot;,&quot;segment&quot;:10,&quot;curved&quot;:1};" vertex="1" parent="04sgWp-ZvmJj8OrhsIiC-1">
          <mxGeometry x="1020" y="400" width="120" height="30" as="geometry" />
        </mxCell>
        <mxCell id="04sgWp-ZvmJj8OrhsIiC-19" value="" style="edgeStyle=entityRelationEdgeStyle;startArrow=none;endArrow=none;segment=10;curved=1;rounded=0;" edge="1" target="04sgWp-ZvmJj8OrhsIiC-20" source="04sgWp-ZvmJj8OrhsIiC-6" parent="04sgWp-ZvmJj8OrhsIiC-1">
          <mxGeometry relative="1" as="geometry">
            <mxPoint x="520" y="410" as="sourcePoint" />
          </mxGeometry>
        </mxCell>
        <mxCell id="04sgWp-ZvmJj8OrhsIiC-20" value="兼務メンバー" style="whiteSpace=wrap;html=1;rounded=1;arcSize=50;align=center;verticalAlign=middle;strokeWidth=1;autosize=1;spacing=4;treeFolding=1;treeMoving=1;newEdgeStyle={&quot;edgeStyle&quot;:&quot;entityRelationEdgeStyle&quot;,&quot;startArrow&quot;:&quot;none&quot;,&quot;endArrow&quot;:&quot;none&quot;,&quot;segment&quot;:10,&quot;curved&quot;:1};" vertex="1" parent="04sgWp-ZvmJj8OrhsIiC-1">
          <mxGeometry x="1030" y="440" width="110" height="30" as="geometry" />
        </mxCell>
        <mxCell id="04sgWp-ZvmJj8OrhsIiC-21" value="" style="edgeStyle=entityRelationEdgeStyle;startArrow=none;endArrow=none;segment=10;curved=1;rounded=0;" edge="1" target="04sgWp-ZvmJj8OrhsIiC-22" source="04sgWp-ZvmJj8OrhsIiC-6" parent="04sgWp-ZvmJj8OrhsIiC-1">
          <mxGeometry relative="1" as="geometry">
            <mxPoint x="520" y="410" as="sourcePoint" />
          </mxGeometry>
        </mxCell>
        <mxCell id="04sgWp-ZvmJj8OrhsIiC-22" value="若手の要否" style="whiteSpace=wrap;html=1;rounded=1;arcSize=50;align=center;verticalAlign=middle;strokeWidth=1;autosize=1;spacing=4;treeFolding=1;treeMoving=1;newEdgeStyle={&quot;edgeStyle&quot;:&quot;entityRelationEdgeStyle&quot;,&quot;startArrow&quot;:&quot;none&quot;,&quot;endArrow&quot;:&quot;none&quot;,&quot;segment&quot;:10,&quot;curved&quot;:1};" vertex="1" parent="04sgWp-ZvmJj8OrhsIiC-1">
          <mxGeometry x="1030" y="480" width="100" height="30" as="geometry" />
        </mxCell>
        <mxCell id="04sgWp-ZvmJj8OrhsIiC-23" value="" style="edgeStyle=entityRelationEdgeStyle;startArrow=none;endArrow=none;segment=10;curved=1;rounded=0;" edge="1" target="04sgWp-ZvmJj8OrhsIiC-24" source="04sgWp-ZvmJj8OrhsIiC-6" parent="04sgWp-ZvmJj8OrhsIiC-1">
          <mxGeometry relative="1" as="geometry">
            <mxPoint x="520" y="410" as="sourcePoint" />
          </mxGeometry>
        </mxCell>
        <mxCell id="04sgWp-ZvmJj8OrhsIiC-24" value="兼務メンバー" style="whiteSpace=wrap;html=1;rounded=1;arcSize=50;align=center;verticalAlign=middle;strokeWidth=1;autosize=1;spacing=4;treeFolding=1;treeMoving=1;newEdgeStyle={&quot;edgeStyle&quot;:&quot;entityRelationEdgeStyle&quot;,&quot;startArrow&quot;:&quot;none&quot;,&quot;endArrow&quot;:&quot;none&quot;,&quot;segment&quot;:10,&quot;curved&quot;:1};" vertex="1" parent="04sgWp-ZvmJj8OrhsIiC-1">
          <mxGeometry x="1030" y="520" width="110" height="30" as="geometry" />
        </mxCell>
        <mxCell id="04sgWp-ZvmJj8OrhsIiC-31" value="Gr体制案" style="ellipse;whiteSpace=wrap;html=1;align=center;treeFolding=1;treeMoving=1;newEdgeStyle={&quot;edgeStyle&quot;:&quot;entityRelationEdgeStyle&quot;,&quot;startArrow&quot;:&quot;none&quot;,&quot;endArrow&quot;:&quot;none&quot;,&quot;segment&quot;:10,&quot;curved&quot;:1};" vertex="1" parent="04sgWp-ZvmJj8OrhsIiC-1">
          <mxGeometry x="830" y="620" width="130" height="60" as="geometry" />
        </mxCell>
        <mxCell id="04sgWp-ZvmJj8OrhsIiC-32" value="" style="edgeStyle=entityRelationEdgeStyle;startArrow=none;endArrow=none;segment=10;curved=1;rounded=0;" edge="1" parent="04sgWp-ZvmJj8OrhsIiC-1" source="04sgWp-ZvmJj8OrhsIiC-31" target="04sgWp-ZvmJj8OrhsIiC-33">
          <mxGeometry relative="1" as="geometry">
            <mxPoint x="960" y="640" as="sourcePoint" />
          </mxGeometry>
        </mxCell>
        <mxCell id="04sgWp-ZvmJj8OrhsIiC-33" value="" style="whiteSpace=wrap;html=1;rounded=1;arcSize=50;align=center;verticalAlign=middle;strokeWidth=1;autosize=1;spacing=4;treeFolding=1;treeMoving=1;newEdgeStyle={&quot;edgeStyle&quot;:&quot;entityRelationEdgeStyle&quot;,&quot;startArrow&quot;:&quot;none&quot;,&quot;endArrow&quot;:&quot;none&quot;,&quot;segment&quot;:10,&quot;curved&quot;:1};" vertex="1" parent="04sgWp-ZvmJj8OrhsIiC-1">
          <mxGeometry x="1060" y="630" width="50" height="40" as="geometry" />
        </mxCell>
        <mxCell id="04sgWp-ZvmJj8OrhsIiC-38" value="" style="edgeStyle=entityRelationEdgeStyle;startArrow=none;endArrow=none;segment=10;curved=1;rounded=0;" edge="1" target="04sgWp-ZvmJj8OrhsIiC-39" source="04sgWp-ZvmJj8OrhsIiC-7" parent="04sgWp-ZvmJj8OrhsIiC-1">
          <mxGeometry relative="1" as="geometry">
            <mxPoint x="530" y="390" as="sourcePoint" />
          </mxGeometry>
        </mxCell>
        <mxCell id="04sgWp-ZvmJj8OrhsIiC-39" value="事業部への発信" style="whiteSpace=wrap;html=1;rounded=1;arcSize=50;align=center;verticalAlign=middle;strokeWidth=1;autosize=1;spacing=4;treeFolding=1;treeMoving=1;newEdgeStyle={&quot;edgeStyle&quot;:&quot;entityRelationEdgeStyle&quot;,&quot;startArrow&quot;:&quot;none&quot;,&quot;endArrow&quot;:&quot;none&quot;,&quot;segment&quot;:10,&quot;curved&quot;:1};" vertex="1" parent="04sgWp-ZvmJj8OrhsIiC-1">
          <mxGeometry x="1215" y="270" width="120" height="30" as="geometry" />
        </mxCell>
        <mxCell id="04sgWp-ZvmJj8OrhsIiC-45" value="" style="edgeStyle=entityRelationEdgeStyle;startArrow=none;endArrow=none;segment=10;curved=1;rounded=0;" edge="1" target="04sgWp-ZvmJj8OrhsIiC-46" source="04sgWp-ZvmJj8OrhsIiC-16" parent="04sgWp-ZvmJj8OrhsIiC-1">
          <mxGeometry relative="1" as="geometry">
            <mxPoint x="530" y="390" as="sourcePoint" />
          </mxGeometry>
        </mxCell>
        <mxCell id="04sgWp-ZvmJj8OrhsIiC-46" value="→ 昨年ふりかえり" style="whiteSpace=wrap;html=1;rounded=1;arcSize=50;align=center;verticalAlign=middle;strokeWidth=1;autosize=1;spacing=4;treeFolding=1;treeMoving=1;newEdgeStyle={&quot;edgeStyle&quot;:&quot;entityRelationEdgeStyle&quot;,&quot;startArrow&quot;:&quot;none&quot;,&quot;endArrow&quot;:&quot;none&quot;,&quot;segment&quot;:10,&quot;curved&quot;:1};" vertex="1" parent="04sgWp-ZvmJj8OrhsIiC-1">
          <mxGeometry x="1165" y="230" width="140" height="30" as="geometry" />
        </mxCell>
        <mxCell id="04sgWp-ZvmJj8OrhsIiC-47" value="" style="edgeStyle=entityRelationEdgeStyle;startArrow=none;endArrow=none;segment=10;curved=1;rounded=0;" edge="1" target="04sgWp-ZvmJj8OrhsIiC-48" source="04sgWp-ZvmJj8OrhsIiC-7" parent="04sgWp-ZvmJj8OrhsIiC-1">
          <mxGeometry relative="1" as="geometry">
            <mxPoint x="700" y="325" as="sourcePoint" />
          </mxGeometry>
        </mxCell>
        <mxCell id="04sgWp-ZvmJj8OrhsIiC-48" value="全体技術の底上げ" style="whiteSpace=wrap;html=1;rounded=1;arcSize=50;align=center;verticalAlign=middle;strokeWidth=1;autosize=1;spacing=4;treeFolding=1;treeMoving=1;newEdgeStyle={&quot;edgeStyle&quot;:&quot;entityRelationEdgeStyle&quot;,&quot;startArrow&quot;:&quot;none&quot;,&quot;endArrow&quot;:&quot;none&quot;,&quot;segment&quot;:10,&quot;curved&quot;:1};" vertex="1" parent="04sgWp-ZvmJj8OrhsIiC-1">
          <mxGeometry x="1215" y="310" width="140" height="30" as="geometry" />
        </mxCell>
        <mxCell id="04sgWp-ZvmJj8OrhsIiC-49" value="" style="edgeStyle=entityRelationEdgeStyle;startArrow=none;endArrow=none;segment=10;curved=1;rounded=0;" edge="1" target="04sgWp-ZvmJj8OrhsIiC-50" source="04sgWp-ZvmJj8OrhsIiC-14" parent="04sgWp-ZvmJj8OrhsIiC-1">
          <mxGeometry relative="1" as="geometry">
            <mxPoint x="480" y="390" as="sourcePoint" />
          </mxGeometry>
        </mxCell>
        <mxCell id="04sgWp-ZvmJj8OrhsIiC-50" value="昨年度の役割" style="whiteSpace=wrap;html=1;rounded=1;arcSize=50;align=center;verticalAlign=middle;strokeWidth=1;autosize=1;spacing=4;treeFolding=1;treeMoving=1;newEdgeStyle={&quot;edgeStyle&quot;:&quot;entityRelationEdgeStyle&quot;,&quot;startArrow&quot;:&quot;none&quot;,&quot;endArrow&quot;:&quot;none&quot;,&quot;segment&quot;:10,&quot;curved&quot;:1};" vertex="1" parent="04sgWp-ZvmJj8OrhsIiC-1">
          <mxGeometry x="1210" y="350" width="110" height="30" as="geometry" />
        </mxCell>
        <mxCell id="04sgWp-ZvmJj8OrhsIiC-51" value="" style="edgeStyle=entityRelationEdgeStyle;startArrow=none;endArrow=none;segment=10;curved=1;rounded=0;" edge="1" target="04sgWp-ZvmJj8OrhsIiC-52" source="04sgWp-ZvmJj8OrhsIiC-14" parent="04sgWp-ZvmJj8OrhsIiC-1">
          <mxGeometry relative="1" as="geometry">
            <mxPoint x="650" y="405" as="sourcePoint" />
          </mxGeometry>
        </mxCell>
        <mxCell id="04sgWp-ZvmJj8OrhsIiC-52" value="担うべき役割" style="whiteSpace=wrap;html=1;rounded=1;arcSize=50;align=center;verticalAlign=middle;strokeWidth=1;autosize=1;spacing=4;treeFolding=1;treeMoving=1;newEdgeStyle={&quot;edgeStyle&quot;:&quot;entityRelationEdgeStyle&quot;,&quot;startArrow&quot;:&quot;none&quot;,&quot;endArrow&quot;:&quot;none&quot;,&quot;segment&quot;:10,&quot;curved&quot;:1};" vertex="1" parent="04sgWp-ZvmJj8OrhsIiC-1">
          <mxGeometry x="1210" y="390" width="110" height="30" as="geometry" />
        </mxCell>
        <mxCell id="04sgWp-ZvmJj8OrhsIiC-55" value="" style="edgeStyle=entityRelationEdgeStyle;startArrow=none;endArrow=none;segment=10;curved=1;rounded=0;exitX=1;exitY=0.5;exitDx=0;exitDy=0;" edge="1" target="04sgWp-ZvmJj8OrhsIiC-56" source="04sgWp-ZvmJj8OrhsIiC-72" parent="04sgWp-ZvmJj8OrhsIiC-1">
          <mxGeometry relative="1" as="geometry">
            <mxPoint x="1490" y="140" as="sourcePoint" />
          </mxGeometry>
        </mxCell>
        <mxCell id="04sgWp-ZvmJj8OrhsIiC-56" value="適用技術の調査結果" style="whiteSpace=wrap;html=1;rounded=1;arcSize=50;align=center;verticalAlign=middle;strokeWidth=1;autosize=1;spacing=4;treeFolding=1;treeMoving=1;newEdgeStyle={&quot;edgeStyle&quot;:&quot;entityRelationEdgeStyle&quot;,&quot;startArrow&quot;:&quot;none&quot;,&quot;endArrow&quot;:&quot;none&quot;,&quot;segment&quot;:10,&quot;curved&quot;:1};" vertex="1" parent="04sgWp-ZvmJj8OrhsIiC-1">
          <mxGeometry x="1560" y="170" width="150" height="30" as="geometry" />
        </mxCell>
        <mxCell id="04sgWp-ZvmJj8OrhsIiC-59" value="" style="edgeStyle=entityRelationEdgeStyle;startArrow=none;endArrow=none;segment=10;curved=1;rounded=0;exitX=1;exitY=0.5;exitDx=0;exitDy=0;" edge="1" target="04sgWp-ZvmJj8OrhsIiC-60" source="04sgWp-ZvmJj8OrhsIiC-72" parent="04sgWp-ZvmJj8OrhsIiC-1">
          <mxGeometry relative="1" as="geometry">
            <mxPoint x="845" y="305" as="sourcePoint" />
          </mxGeometry>
        </mxCell>
        <mxCell id="04sgWp-ZvmJj8OrhsIiC-60" value="セミナー情報" style="whiteSpace=wrap;html=1;rounded=1;arcSize=50;align=center;verticalAlign=middle;strokeWidth=1;autosize=1;spacing=4;treeFolding=1;treeMoving=1;newEdgeStyle={&quot;edgeStyle&quot;:&quot;entityRelationEdgeStyle&quot;,&quot;startArrow&quot;:&quot;none&quot;,&quot;endArrow&quot;:&quot;none&quot;,&quot;segment&quot;:10,&quot;curved&quot;:1};" vertex="1" parent="04sgWp-ZvmJj8OrhsIiC-1">
          <mxGeometry x="1580" y="130" width="110" height="30" as="geometry" />
        </mxCell>
        <mxCell id="04sgWp-ZvmJj8OrhsIiC-63" value="" style="edgeStyle=entityRelationEdgeStyle;startArrow=none;endArrow=none;segment=10;curved=1;rounded=0;exitX=1;exitY=0.5;exitDx=0;exitDy=0;" edge="1" target="04sgWp-ZvmJj8OrhsIiC-64" source="04sgWp-ZvmJj8OrhsIiC-72" parent="04sgWp-ZvmJj8OrhsIiC-1">
          <mxGeometry relative="1" as="geometry">
            <mxPoint x="700" y="325" as="sourcePoint" />
          </mxGeometry>
        </mxCell>
        <mxCell id="04sgWp-ZvmJj8OrhsIiC-64" value="推薦図書" style="whiteSpace=wrap;html=1;rounded=1;arcSize=50;align=center;verticalAlign=middle;strokeWidth=1;autosize=1;spacing=4;treeFolding=1;treeMoving=1;newEdgeStyle={&quot;edgeStyle&quot;:&quot;entityRelationEdgeStyle&quot;,&quot;startArrow&quot;:&quot;none&quot;,&quot;endArrow&quot;:&quot;none&quot;,&quot;segment&quot;:10,&quot;curved&quot;:1};" vertex="1" parent="04sgWp-ZvmJj8OrhsIiC-1">
          <mxGeometry x="1560" y="210" width="90" height="30" as="geometry" />
        </mxCell>
        <mxCell id="04sgWp-ZvmJj8OrhsIiC-65" value="" style="edgeStyle=entityRelationEdgeStyle;startArrow=none;endArrow=none;segment=10;curved=1;rounded=0;exitX=1;exitY=0.5;exitDx=0;exitDy=0;" edge="1" target="04sgWp-ZvmJj8OrhsIiC-66" source="04sgWp-ZvmJj8OrhsIiC-72" parent="04sgWp-ZvmJj8OrhsIiC-1">
          <mxGeometry relative="1" as="geometry">
            <mxPoint x="865" y="345" as="sourcePoint" />
          </mxGeometry>
        </mxCell>
        <mxCell id="04sgWp-ZvmJj8OrhsIiC-66" value="Udemy 推薦講座" style="whiteSpace=wrap;html=1;rounded=1;arcSize=50;align=center;verticalAlign=middle;strokeWidth=1;autosize=1;spacing=4;treeFolding=1;treeMoving=1;newEdgeStyle={&quot;edgeStyle&quot;:&quot;entityRelationEdgeStyle&quot;,&quot;startArrow&quot;:&quot;none&quot;,&quot;endArrow&quot;:&quot;none&quot;,&quot;segment&quot;:10,&quot;curved&quot;:1};" vertex="1" parent="04sgWp-ZvmJj8OrhsIiC-1">
          <mxGeometry x="1575" y="260" width="130" height="30" as="geometry" />
        </mxCell>
        <mxCell id="04sgWp-ZvmJj8OrhsIiC-67" value="" style="edgeStyle=entityRelationEdgeStyle;startArrow=none;endArrow=none;segment=10;curved=1;rounded=0;exitX=1;exitY=0.5;exitDx=0;exitDy=0;" edge="1" target="04sgWp-ZvmJj8OrhsIiC-68" source="04sgWp-ZvmJj8OrhsIiC-72" parent="04sgWp-ZvmJj8OrhsIiC-1">
          <mxGeometry relative="1" as="geometry">
            <mxPoint x="845" y="305" as="sourcePoint" />
          </mxGeometry>
        </mxCell>
        <mxCell id="04sgWp-ZvmJj8OrhsIiC-68" value="問い合わせ履歴" style="whiteSpace=wrap;html=1;rounded=1;arcSize=50;align=center;verticalAlign=middle;strokeWidth=1;autosize=1;spacing=4;treeFolding=1;treeMoving=1;newEdgeStyle={&quot;edgeStyle&quot;:&quot;entityRelationEdgeStyle&quot;,&quot;startArrow&quot;:&quot;none&quot;,&quot;endArrow&quot;:&quot;none&quot;,&quot;segment&quot;:10,&quot;curved&quot;:1};" vertex="1" parent="04sgWp-ZvmJj8OrhsIiC-1">
          <mxGeometry x="1575" y="90" width="120" height="30" as="geometry" />
        </mxCell>
        <mxCell id="04sgWp-ZvmJj8OrhsIiC-69" value="" style="edgeStyle=entityRelationEdgeStyle;startArrow=none;endArrow=none;segment=10;curved=1;rounded=0;exitX=1;exitY=0.5;exitDx=0;exitDy=0;" edge="1" target="04sgWp-ZvmJj8OrhsIiC-70" source="04sgWp-ZvmJj8OrhsIiC-72" parent="04sgWp-ZvmJj8OrhsIiC-1">
          <mxGeometry relative="1" as="geometry">
            <mxPoint x="845" y="305" as="sourcePoint" />
          </mxGeometry>
        </mxCell>
        <mxCell id="04sgWp-ZvmJj8OrhsIiC-70" value="適用技術の検証結果" style="whiteSpace=wrap;html=1;rounded=1;arcSize=50;align=center;verticalAlign=middle;strokeWidth=1;autosize=1;spacing=4;treeFolding=1;treeMoving=1;newEdgeStyle={&quot;edgeStyle&quot;:&quot;entityRelationEdgeStyle&quot;,&quot;startArrow&quot;:&quot;none&quot;,&quot;endArrow&quot;:&quot;none&quot;,&quot;segment&quot;:10,&quot;curved&quot;:1};" vertex="1" parent="04sgWp-ZvmJj8OrhsIiC-1">
          <mxGeometry x="1575" y="50" width="150" height="30" as="geometry" />
        </mxCell>
        <mxCell id="04sgWp-ZvmJj8OrhsIiC-71" value="" style="edgeStyle=entityRelationEdgeStyle;startArrow=none;endArrow=none;segment=10;curved=1;rounded=0;" edge="1" target="04sgWp-ZvmJj8OrhsIiC-72" source="04sgWp-ZvmJj8OrhsIiC-39" parent="04sgWp-ZvmJj8OrhsIiC-1">
          <mxGeometry relative="1" as="geometry">
            <mxPoint x="845" y="305" as="sourcePoint" />
          </mxGeometry>
        </mxCell>
        <mxCell id="04sgWp-ZvmJj8OrhsIiC-72" value="発信すべき情報" style="whiteSpace=wrap;html=1;rounded=1;arcSize=50;align=center;verticalAlign=middle;strokeWidth=1;autosize=1;spacing=4;treeFolding=1;treeMoving=1;newEdgeStyle={&quot;edgeStyle&quot;:&quot;entityRelationEdgeStyle&quot;,&quot;startArrow&quot;:&quot;none&quot;,&quot;endArrow&quot;:&quot;none&quot;,&quot;segment&quot;:10,&quot;curved&quot;:1};" vertex="1" parent="04sgWp-ZvmJj8OrhsIiC-1">
          <mxGeometry x="1365" y="110" width="120" height="30" as="geometry" />
        </mxCell>
        <mxCell id="04sgWp-ZvmJj8OrhsIiC-73" style="edgeStyle=orthogonalEdgeStyle;rounded=0;orthogonalLoop=1;jettySize=auto;html=1;entryX=0.5;entryY=1;entryDx=0;entryDy=0;sketch=0;dashed=1;" edge="1" parent="04sgWp-ZvmJj8OrhsIiC-1" source="04sgWp-ZvmJj8OrhsIiC-48" target="04sgWp-ZvmJj8OrhsIiC-72">
          <mxGeometry relative="1" as="geometry">
            <mxPoint x="1420" y="230" as="targetPoint" />
          </mxGeometry>
        </mxCell>
        <mxCell id="04sgWp-ZvmJj8OrhsIiC-74" value="" style="edgeStyle=entityRelationEdgeStyle;startArrow=none;endArrow=none;segment=10;curved=1;rounded=0;" edge="1" target="04sgWp-ZvmJj8OrhsIiC-75" source="04sgWp-ZvmJj8OrhsIiC-48" parent="04sgWp-ZvmJj8OrhsIiC-1">
          <mxGeometry relative="1" as="geometry">
            <mxPoint x="740" y="325" as="sourcePoint" />
          </mxGeometry>
        </mxCell>
        <mxCell id="04sgWp-ZvmJj8OrhsIiC-75" value="Udemy 利用の推進" style="whiteSpace=wrap;html=1;rounded=1;arcSize=50;align=center;verticalAlign=middle;strokeWidth=1;autosize=1;spacing=4;treeFolding=1;treeMoving=1;newEdgeStyle={&quot;edgeStyle&quot;:&quot;entityRelationEdgeStyle&quot;,&quot;startArrow&quot;:&quot;none&quot;,&quot;endArrow&quot;:&quot;none&quot;,&quot;segment&quot;:10,&quot;curved&quot;:1};" vertex="1" parent="04sgWp-ZvmJj8OrhsIiC-1">
          <mxGeometry x="1410" y="330" width="140" height="30" as="geometry" />
        </mxCell>
        <mxCell id="04sgWp-ZvmJj8OrhsIiC-76" value="" style="edgeStyle=entityRelationEdgeStyle;startArrow=none;endArrow=none;segment=10;curved=1;rounded=0;" edge="1" target="04sgWp-ZvmJj8OrhsIiC-77" source="04sgWp-ZvmJj8OrhsIiC-75" parent="04sgWp-ZvmJj8OrhsIiC-1">
          <mxGeometry relative="1" as="geometry">
            <mxPoint x="905" y="345" as="sourcePoint" />
          </mxGeometry>
        </mxCell>
        <mxCell id="04sgWp-ZvmJj8OrhsIiC-77" value="希望者には配るべき" style="whiteSpace=wrap;html=1;rounded=1;arcSize=50;align=center;verticalAlign=middle;strokeWidth=1;autosize=1;spacing=4;treeFolding=1;treeMoving=1;newEdgeStyle={&quot;edgeStyle&quot;:&quot;entityRelationEdgeStyle&quot;,&quot;startArrow&quot;:&quot;none&quot;,&quot;endArrow&quot;:&quot;none&quot;,&quot;segment&quot;:10,&quot;curved&quot;:1};" vertex="1" parent="04sgWp-ZvmJj8OrhsIiC-1">
          <mxGeometry x="1575" y="315" width="150" height="30" as="geometry" />
        </mxCell>
        <mxCell id="04sgWp-ZvmJj8OrhsIiC-78" value="" style="edgeStyle=entityRelationEdgeStyle;startArrow=none;endArrow=none;segment=10;curved=1;rounded=0;" edge="1" target="04sgWp-ZvmJj8OrhsIiC-79" source="04sgWp-ZvmJj8OrhsIiC-48" parent="04sgWp-ZvmJj8OrhsIiC-1">
          <mxGeometry relative="1" as="geometry">
            <mxPoint x="905" y="345" as="sourcePoint" />
          </mxGeometry>
        </mxCell>
        <mxCell id="04sgWp-ZvmJj8OrhsIiC-79" value="Udemy 利用の推進" style="whiteSpace=wrap;html=1;rounded=1;arcSize=50;align=center;verticalAlign=middle;strokeWidth=1;autosize=1;spacing=4;treeFolding=1;treeMoving=1;newEdgeStyle={&quot;edgeStyle&quot;:&quot;entityRelationEdgeStyle&quot;,&quot;startArrow&quot;:&quot;none&quot;,&quot;endArrow&quot;:&quot;none&quot;,&quot;segment&quot;:10,&quot;curved&quot;:1};" vertex="1" parent="04sgWp-ZvmJj8OrhsIiC-1">
          <mxGeometry x="1410" y="370" width="140" height="30" as="geometry" />
        </mxCell>
        <mxCell id="04sgWp-ZvmJj8OrhsIiC-80" value="" style="edgeStyle=entityRelationEdgeStyle;startArrow=none;endArrow=none;segment=10;curved=1;rounded=0;" edge="1" target="04sgWp-ZvmJj8OrhsIiC-81" source="04sgWp-ZvmJj8OrhsIiC-52" parent="04sgWp-ZvmJj8OrhsIiC-1">
          <mxGeometry relative="1" as="geometry">
            <mxPoint x="690" y="385" as="sourcePoint" />
          </mxGeometry>
        </mxCell>
        <mxCell id="04sgWp-ZvmJj8OrhsIiC-81" value="事業部全体の実装力向上の仕組みを考える" style="whiteSpace=wrap;html=1;rounded=1;arcSize=50;align=center;verticalAlign=middle;strokeWidth=1;autosize=1;spacing=4;treeFolding=1;treeMoving=1;newEdgeStyle={&quot;edgeStyle&quot;:&quot;entityRelationEdgeStyle&quot;,&quot;startArrow&quot;:&quot;none&quot;,&quot;endArrow&quot;:&quot;none&quot;,&quot;segment&quot;:10,&quot;curved&quot;:1};" vertex="1" parent="04sgWp-ZvmJj8OrhsIiC-1">
          <mxGeometry x="1380" y="440" width="270" height="30" as="geometry" />
        </mxCell>
      </root>
    </mxGraphModel>
  </diagram>
</mxfile>
